<svg width="16" height="16" viewBox="0 0 16 16" fill="none" xmlns="http://www.w3.org/2000/svg">
<path d="M8 0C6.41775 0 4.87104 0.469192 3.55544 1.34824C2.23985 2.22729 1.21447 3.47672 0.608967 4.93853C0.00346629 6.40034 -0.15496 8.00887 0.153721 9.56072C0.462403 11.1126 1.22433 12.538 2.34315 13.6569C3.46197 14.7757 4.88743 15.5376 6.43928 15.8463C7.99113 16.155 9.59966 15.9965 11.0615 15.391C12.5233 14.7855 13.7727 13.7602 14.6518 12.4446C15.5308 11.129 16 9.58225 16 8C15.9977 5.87897 15.1541 3.84547 13.6543 2.34568C12.1545 0.845886 10.121 0.00229405 8 0ZM8 14.6667C6.68146 14.6667 5.39253 14.2757 4.2962 13.5431C3.19987 12.8106 2.34539 11.7694 1.84081 10.5512C1.33622 9.33305 1.2042 7.99261 1.46144 6.6994C1.71867 5.40619 2.35361 4.21831 3.28596 3.28596C4.21831 2.35361 5.4062 1.71867 6.6994 1.46143C7.99261 1.2042 9.33305 1.33622 10.5512 1.8408C11.7694 2.34539 12.8106 3.19987 13.5431 4.2962C14.2757 5.39253 14.6667 6.68146 14.6667 8C14.6647 9.76752 13.9617 11.4621 12.7119 12.7119C11.4621 13.9617 9.76752 14.6647 8 14.6667Z" fill="#525252"/>
<path d="M8.00065 6C7.82384 6 7.65427 6.07024 7.52925 6.19526C7.40422 6.32029 7.33398 6.48986 7.33398 6.66667V12C7.33398 12.1768 7.40422 12.3464 7.52925 12.4714C7.65427 12.5964 7.82384 12.6667 8.00065 12.6667C8.17746 12.6667 8.34703 12.5964 8.47206 12.4714C8.59708 12.3464 8.66732 12.1768 8.66732 12V6.66667C8.66732 6.48986 8.59708 6.32029 8.47206 6.19526C8.34703 6.07024 8.17746 6 8.00065 6Z" fill="#525252"/>
<path d="M8.00065 4.66698C8.36884 4.66698 8.66732 4.36851 8.66732 4.00032C8.66732 3.63213 8.36884 3.33365 8.00065 3.33365C7.63246 3.33365 7.33398 3.63213 7.33398 4.00032C7.33398 4.36851 7.63246 4.66698 8.00065 4.66698Z" fill="#525252"/>
</svg>
