<svg width="19" height="19" viewBox="0 0 19 19" fill="none" xmlns="http://www.w3.org/2000/svg">
<path d="M17.4173 8.70834V15.8333H15.834V13.4583H3.16732V15.8333H1.58398V3.16667H3.16732V11.0833H9.50065V5.54167H14.2507C15.9995 5.54167 17.4173 6.95944 17.4173 8.70834ZM15.834 11.0833V8.70834C15.834 7.83389 15.1251 7.12501 14.2507 7.12501H11.084V11.0833H15.834ZM6.33398 8.70834C6.77121 8.70834 7.12565 8.35391 7.12565 7.91667C7.12565 7.47945 6.77121 7.12501 6.33398 7.12501C5.89676 7.12501 5.54232 7.47945 5.54232 7.91667C5.54232 8.35391 5.89676 8.70834 6.33398 8.70834ZM6.33398 10.2917C5.02231 10.2917 3.95898 9.22838 3.95898 7.91667C3.95898 6.605 5.02231 5.54167 6.33398 5.54167C7.64566 5.54167 8.70898 6.605 8.70898 7.91667C8.70898 9.22838 7.64566 10.2917 6.33398 10.2917Z" fill="#525252"/>
</svg>
