<svg width="60" height="60" viewBox="0 0 60 60" fill="none" xmlns="http://www.w3.org/2000/svg">
<circle cx="30" cy="30" r="30" fill="#4A5D52" fill-opacity="0.1"/>
<path d="M43.3327 28.6667V40.6667H40.666V36.6667H19.3327V40.6667H16.666V19.3333H19.3327V32.6667H29.9993V23.3333H37.9993C40.9448 23.3333 43.3327 25.7211 43.3327 28.6667ZM40.666 32.6667V28.6667C40.666 27.1939 39.4721 26 37.9993 26H32.666V32.6667H40.666ZM24.666 28.6667C25.4024 28.6667 25.9993 28.0697 25.9993 27.3333C25.9993 26.597 25.4024 26 24.666 26C23.9296 26 23.3327 26.597 23.3327 27.3333C23.3327 28.0697 23.9296 28.6667 24.666 28.6667ZM24.666 31.3333C22.4569 31.3333 20.666 29.5425 20.666 27.3333C20.666 25.1242 22.4569 23.3333 24.666 23.3333C26.8751 23.3333 28.666 25.1242 28.666 27.3333C28.666 29.5425 26.8751 31.3333 24.666 31.3333Z" fill="#4A5D52"/>
</svg>
