<svg width="13" height="16" viewBox="0 0 13 16" fill="none" xmlns="http://www.w3.org/2000/svg">
<path d="M2.25 4.4585C2.25 2.11128 4.15279 0.208496 6.5 0.208496C8.8472 0.208496 10.75 2.11128 10.75 4.4585C10.75 4.64418 10.738 4.82733 10.7149 5.00715C12.0037 5.73642 12.875 7.12006 12.875 8.7085C12.875 11.0557 10.9722 12.9585 8.625 12.9585H7.20833V15.0835H5.79167V12.9585H4.02083C1.86922 12.9585 0.125 11.2143 0.125 9.06266C0.125 7.49463 1.05088 6.14409 2.38528 5.52598C2.297 5.1849 2.25 4.82711 2.25 4.4585ZM2.96516 6.81859C2.12375 7.21519 1.54167 8.07156 1.54167 9.06266C1.54167 10.4319 2.65162 11.5418 4.02083 11.5418H8.625C10.1898 11.5418 11.4583 10.2733 11.4583 8.7085C11.4583 7.5083 10.7118 6.4807 9.6552 6.06807L9.05914 5.8353C9.18508 5.38172 9.33333 4.93438 9.33333 4.4585C9.33333 2.89369 8.06478 1.62516 6.5 1.62516C4.93519 1.62516 3.66667 2.89369 3.66667 4.4585C3.66667 5.38488 4.11051 6.20739 4.80013 6.72552L3.94918 7.85814C3.56585 7.57013 3.23257 7.21837 2.96516 6.81859Z" fill="white"/>
</svg>
