<svg width="48" height="48" viewBox="0 0 48 48" fill="none" xmlns="http://www.w3.org/2000/svg">
<rect width="48" height="48" rx="24" fill="#4A5D52" fill-opacity="0.1"/>
<g clip-path="url(#clip0_1076_556)">
<path d="M32 30.667L32.4 31.2C32.4557 31.2743 32.4896 31.3626 32.498 31.4551C32.5063 31.5476 32.4887 31.6406 32.4472 31.7236C32.4057 31.8067 32.3419 31.8765 32.2629 31.9253C32.1839 31.9741 32.0929 32 32 32H16C15.9071 32 15.8161 31.9741 15.7371 31.9253C15.6581 31.8765 15.5943 31.8067 15.5528 31.7236C15.5113 31.6406 15.4937 31.5476 15.502 31.4551C15.5104 31.3626 15.5443 31.2743 15.6 31.2L16 30.667V22C16 19.8783 16.8429 17.8434 18.3431 16.3431C19.8434 14.8429 21.8783 14 24 14C26.1217 14 28.1566 14.8429 29.6569 16.3431C31.1571 17.8434 32 19.8783 32 22V30.667ZM21.5 33H26.5C26.5 33.663 26.2366 34.2989 25.7678 34.7678C25.2989 35.2366 24.663 35.5 24 35.5C23.337 35.5 22.7011 35.2366 22.2322 34.7678C21.7634 34.2989 21.5 33.663 21.5 33Z" fill="#4A5D52"/>
</g>
<defs>
<clipPath id="clip0_1076_556">
<rect width="24" height="24" fill="white" transform="translate(12 12)"/>
</clipPath>
</defs>
</svg>
