<svg width="19" height="19" viewBox="0 0 19 19" fill="none" xmlns="http://www.w3.org/2000/svg">
<path d="M4.75 5.54166C4.75 2.9183 6.87665 0.791656 9.5 0.791656C12.1233 0.791656 14.25 2.9183 14.25 5.54166C14.25 5.74918 14.2366 5.95388 14.2107 6.15486C15.6512 6.96993 16.625 8.51634 16.625 10.2917C16.625 12.915 14.4983 15.0417 11.875 15.0417H10.2917V17.4167H8.70833V15.0417H6.72917C4.32442 15.0417 2.375 13.0923 2.375 10.6875C2.375 8.93498 3.4098 7.42555 4.90119 6.73473C4.80253 6.35352 4.75 5.95363 4.75 5.54166ZM5.5493 8.17941C4.60889 8.62266 3.95833 9.57979 3.95833 10.6875C3.95833 12.2178 5.19888 13.4583 6.72917 13.4583H11.875C13.6239 13.4583 15.0417 12.0405 15.0417 10.2917C15.0417 8.95026 14.2073 7.80177 13.0264 7.34059L12.3602 7.08043C12.501 6.57349 12.6667 6.07352 12.6667 5.54166C12.6667 3.79275 11.2489 2.37499 9.5 2.37499C7.7511 2.37499 6.33333 3.79275 6.33333 5.54166C6.33333 6.57702 6.82939 7.4963 7.60015 8.07539L6.64908 9.34126C6.22066 9.01937 5.84817 8.62623 5.5493 8.17941Z" fill="#525252"/>
</svg>
