<svg width="15" height="12" viewBox="0 0 15 12" fill="none" xmlns="http://www.w3.org/2000/svg">
<path d="M14.5834 5.29183V11.6668H13.1667V9.54183H1.83341V11.6668H0.416748V0.333496H1.83341V7.41683H7.50008V2.4585H11.7501C13.3149 2.4585 14.5834 3.72702 14.5834 5.29183ZM13.1667 7.41683V5.29183C13.1667 4.50943 12.5325 3.87516 11.7501 3.87516H8.91675V7.41683H13.1667ZM4.66675 5.29183C5.05795 5.29183 5.37508 4.97471 5.37508 4.5835C5.37508 4.1923 5.05795 3.87516 4.66675 3.87516C4.27555 3.87516 3.95841 4.1923 3.95841 4.5835C3.95841 4.97471 4.27555 5.29183 4.66675 5.29183ZM4.66675 6.7085C3.49315 6.7085 2.54175 5.75713 2.54175 4.5835C2.54175 3.40989 3.49315 2.4585 4.66675 2.4585C5.84035 2.4585 6.79175 3.40989 6.79175 4.5835C6.79175 5.75713 5.84035 6.7085 4.66675 6.7085Z" fill="white"/>
</svg>
