<svg width="60" height="60" viewBox="0 0 60 60" fill="none" xmlns="http://www.w3.org/2000/svg">
<circle cx="30" cy="30" r="30" fill="#4A5D52" fill-opacity="0.1"/>
<path d="M22 23.3333C22 18.9151 25.5817 15.3333 30 15.3333C34.4183 15.3333 38 18.9151 38 23.3333C38 23.6829 37.9775 24.0276 37.9339 24.3661C40.36 25.7388 42 28.3433 42 31.3333C42 35.7516 38.4183 39.3333 34 39.3333H31.3333V43.3333H28.6667V39.3333H25.3333C21.2832 39.3333 18 36.0501 18 32C18 29.0484 19.7428 26.5062 22.2546 25.3427C22.0885 24.7007 22 24.0272 22 23.3333ZM23.3462 27.7759C21.7623 28.5224 20.6667 30.1344 20.6667 32C20.6667 34.5773 22.756 36.6667 25.3333 36.6667H34C36.9455 36.6667 39.3333 34.2788 39.3333 31.3333C39.3333 29.0741 37.9281 27.1398 35.9392 26.3631L34.8172 25.925C35.0543 25.0712 35.3333 24.2291 35.3333 23.3333C35.3333 20.3878 32.9455 18 30 18C27.0545 18 24.6667 20.3878 24.6667 23.3333C24.6667 25.0771 25.5021 26.6254 26.8003 27.6007L25.1985 29.7327C24.4769 29.1905 23.8495 28.5284 23.3462 27.7759Z" fill="#4A5D52"/>
</svg>
