<svg width="15" height="18" viewBox="0 0 15 18" fill="none" xmlns="http://www.w3.org/2000/svg">
<path d="M2.75 5.54166C2.75 2.9183 4.87665 0.791656 7.5 0.791656C10.1233 0.791656 12.25 2.9183 12.25 5.54166C12.25 5.74918 12.2366 5.95388 12.2107 6.15486C13.6512 6.96993 14.625 8.51634 14.625 10.2917C14.625 12.915 12.4983 15.0417 9.875 15.0417H8.29167V17.4167H6.70833V15.0417H4.72917C2.32442 15.0417 0.375 13.0923 0.375 10.6875C0.375 8.93498 1.4098 7.42555 2.90119 6.73473C2.80253 6.35352 2.75 5.95363 2.75 5.54166ZM3.5493 8.17941C2.60889 8.62266 1.95833 9.57979 1.95833 10.6875C1.95833 12.2178 3.19888 13.4583 4.72917 13.4583H9.875C11.6239 13.4583 13.0417 12.0405 13.0417 10.2917C13.0417 8.95026 12.2073 7.80177 11.0264 7.34059L10.3602 7.08043C10.501 6.57349 10.6667 6.07352 10.6667 5.54166C10.6667 3.79275 9.24887 2.37499 7.5 2.37499C5.7511 2.37499 4.33333 3.79275 4.33333 5.54166C4.33333 6.57702 4.82939 7.4963 5.60015 8.07539L4.64908 9.34126C4.22066 9.01937 3.84817 8.62623 3.5493 8.17941Z" fill="#525252"/>
</svg>
