<svg width="17" height="17" viewBox="0 0 17 17" fill="none" xmlns="http://www.w3.org/2000/svg">
<path d="M15.166 3.99984H12.666V2.33317C12.666 1.40817 11.9243 0.666504 10.9993 0.666504H5.99935C5.07435 0.666504 4.33268 1.40817 4.33268 2.33317V3.99984H1.83268C0.907682 3.99984 0.166016 4.7415 0.166016 5.6665V14.8332C0.166016 15.7582 0.907682 16.4998 1.83268 16.4998H15.166C16.091 16.4998 16.8327 15.7582 16.8327 14.8332V5.6665C16.8327 4.7415 16.091 3.99984 15.166 3.99984ZM5.99935 2.33317H10.9993V3.99984H5.99935V2.33317ZM15.166 14.8332H1.83268V13.1665H15.166V14.8332ZM15.166 10.6665H1.83268V5.6665H4.33268V7.33317H5.99935V5.6665H10.9993V7.33317H12.666V5.6665H15.166V10.6665Z" fill="white"/>
</svg>
