<svg width="17" height="18" viewBox="0 0 17 18" fill="none" xmlns="http://www.w3.org/2000/svg">
<path d="M2.17122 11.6667V2.16668H0.587891V0.583344H2.96289C3.40012 0.583344 3.75456 0.937789 3.75456 1.37501V10.875H13.6016L15.185 4.54168H5.33789V2.95834H16.1989C16.6362 2.95834 16.9906 3.31279 16.9906 3.75001C16.9906 3.81474 16.9827 3.87923 16.9669 3.94202L14.9878 11.8587C14.8997 12.2111 14.5831 12.4583 14.2198 12.4583H2.96289C2.52567 12.4583 2.17122 12.1039 2.17122 11.6667ZM3.75456 17.2083C2.88011 17.2083 2.17122 16.4995 2.17122 15.625C2.17122 14.7505 2.88011 14.0417 3.75456 14.0417C4.62901 14.0417 5.33789 14.7505 5.33789 15.625C5.33789 16.4995 4.62901 17.2083 3.75456 17.2083ZM13.2546 17.2083C12.3801 17.2083 11.6712 16.4995 11.6712 15.625C11.6712 14.7505 12.3801 14.0417 13.2546 14.0417C14.129 14.0417 14.8379 14.7505 14.8379 15.625C14.8379 16.4995 14.129 17.2083 13.2546 17.2083Z" fill="#525252"/>
</svg>
