<svg width="60" height="60" viewBox="0 0 60 60" fill="none" xmlns="http://www.w3.org/2000/svg">
<circle cx="30" cy="30" r="30" fill="#4A5D52"/>
<g clip-path="url(#clip0_37_520)">
<path fill-rule="evenodd" clip-rule="evenodd" d="M20.414 29.4213C21.0429 29.4213 21.6576 29.6078 22.1805 29.9572C22.7033 30.3065 23.1109 30.8031 23.3515 31.3841C23.5922 31.9651 23.6551 32.6044 23.5324 33.2211C23.4098 33.8379 23.1069 34.4044 22.6623 34.8491C22.2176 35.2937 21.6511 35.5966 21.0343 35.7192C20.4176 35.8419 19.7783 35.7789 19.1973 35.5383C18.6163 35.2977 18.1197 34.8901 17.7704 34.3673C17.421 33.8444 17.2345 33.2297 17.2345 32.6008C17.2345 31.7576 17.5695 30.9489 18.1658 30.3526C18.7621 29.7563 19.5708 29.4213 20.414 29.4213ZM30 18.5625C28.6758 18.5625 27.3814 18.9551 26.2804 19.6908C25.1794 20.4264 24.3212 21.4721 23.8145 22.6954C23.3078 23.9188 23.1752 25.2649 23.4335 26.5637C23.6918 27.8624 24.3294 29.0553 25.2657 29.9917C26.2021 30.928 27.395 31.5657 28.6937 31.824C29.9924 32.0824 31.3386 31.9498 32.562 31.4431C33.7853 30.9364 34.831 30.0783 35.5667 28.9773C36.3024 27.8763 36.6951 26.5819 36.6951 25.2578C36.6951 24.3785 36.522 23.5079 36.1855 22.6956C35.8491 21.8833 35.3559 21.1452 34.7342 20.5235C34.1125 19.9018 33.3744 19.4086 32.5621 19.0721C31.7498 18.7356 30.8792 18.5625 30 18.5625ZM30.498 16.7071C30.498 16.8392 30.4456 16.9659 30.3522 17.0593C30.2588 17.1527 30.1321 17.2052 30 17.2052C29.8679 17.2052 29.7412 17.1527 29.6478 17.0593C29.5544 16.9659 29.5019 16.8392 29.5019 16.7071V14.7802C29.5034 14.6491 29.5565 14.5238 29.6497 14.4316C29.743 14.3394 29.8688 14.2877 29.9999 14.2877C30.1311 14.2877 30.2569 14.3394 30.3502 14.4316C30.4434 14.5238 30.4965 14.6491 30.498 14.7802V16.7073L30.498 16.7071ZM38.4335 25.8727C38.3024 25.8712 38.1771 25.8181 38.0849 25.7249C37.9927 25.6316 37.941 25.5058 37.941 25.3747C37.941 25.2435 37.9927 25.1177 38.0849 25.0245C38.1771 24.9312 38.3024 24.8781 38.4335 24.8766H40.3606C40.4927 24.8766 40.6194 24.9291 40.7128 25.0225C40.8062 25.1159 40.8587 25.2426 40.8587 25.3747C40.8587 25.5068 40.8062 25.6335 40.7128 25.7269C40.6194 25.8203 40.4927 25.8728 40.3606 25.8728L38.4335 25.8727ZM37.5964 21.5154C37.482 21.5805 37.3465 21.5978 37.2194 21.5634C37.0923 21.529 36.984 21.4458 36.918 21.3319C36.852 21.218 36.8337 21.0826 36.8672 20.9553C36.9006 20.8279 36.983 20.719 37.0964 20.6521L38.7652 19.6886C38.8219 19.6557 38.8844 19.6344 38.9494 19.6258C39.0143 19.6171 39.0803 19.6214 39.1436 19.6382C39.2069 19.6551 39.2663 19.6843 39.3183 19.7241C39.3703 19.7639 39.414 19.8135 39.4468 19.8702C39.4797 19.9269 39.501 19.9895 39.5096 20.0545C39.5183 20.1194 39.514 20.1854 39.4972 20.2487C39.4803 20.312 39.4511 20.3713 39.4113 20.4234C39.3715 20.4754 39.3219 20.5191 39.2652 20.5519L37.5964 21.5154ZM34.6912 18.1591C34.6254 18.2736 34.5168 18.3573 34.3894 18.3917C34.2619 18.4262 34.126 18.4085 34.0115 18.3428C33.897 18.277 33.8133 18.1684 33.7789 18.041C33.7445 17.9135 33.7621 17.7776 33.8279 17.6631L34.7914 15.9943C34.8578 15.881 34.9663 15.7985 35.0932 15.7648C35.2201 15.7311 35.3552 15.7489 35.4691 15.8143C35.5829 15.8798 35.6663 15.9875 35.7011 16.1142C35.7359 16.2408 35.7192 16.376 35.6547 16.4905L34.6912 18.1591ZM21.3326 24.6428C21.4647 24.6428 21.5914 24.6952 21.6848 24.7886C21.7782 24.882 21.8307 25.0087 21.8307 25.1408C21.8307 25.2729 21.7782 25.3996 21.6848 25.493C21.5914 25.5864 21.4647 25.6389 21.3326 25.6389H19.4055C19.3397 25.6396 19.2743 25.6273 19.2132 25.6026C19.1522 25.5779 19.0966 25.5413 19.0498 25.495C19.0029 25.4487 18.9657 25.3935 18.9403 25.3327C18.915 25.272 18.9019 25.2067 18.9019 25.1409C18.9019 25.075 18.915 25.0098 18.9403 24.949C18.9657 24.8882 19.0029 24.833 19.0498 24.7867C19.0966 24.7404 19.1522 24.7038 19.2132 24.6791C19.2743 24.6544 19.3397 24.6421 19.4055 24.6428L21.3326 24.6428ZM22.7847 20.4496C22.8419 20.4819 22.8922 20.5252 22.9327 20.577C22.9731 20.6288 23.0029 20.6882 23.0203 20.7515C23.0377 20.8149 23.0424 20.8811 23.0341 20.9463C23.0258 21.0115 23.0046 21.0745 22.9719 21.1314C22.9391 21.1884 22.8954 21.2384 22.8433 21.2784C22.7911 21.3184 22.7316 21.3477 22.668 21.3646C22.6045 21.3814 22.5383 21.3856 22.4731 21.3767C22.408 21.3678 22.3453 21.3462 22.2885 21.313L20.6198 20.3494C20.5053 20.2836 20.4217 20.175 20.3872 20.0476C20.3528 19.9201 20.3704 19.7842 20.4362 19.6697C20.502 19.5553 20.6105 19.4716 20.738 19.4372C20.8655 19.4027 21.0014 19.4204 21.1159 19.4861L22.7847 20.4496ZM26.1409 17.5444C26.2072 17.6589 26.2253 17.795 26.1913 17.9228C26.1572 18.0507 26.0737 18.1597 25.9593 18.226C25.8448 18.2924 25.7086 18.3105 25.5808 18.2764C25.453 18.2423 25.3439 18.1589 25.2776 18.0444L24.3141 16.3756C24.2807 16.3189 24.2588 16.2562 24.2498 16.191C24.2407 16.1258 24.2447 16.0595 24.2614 15.9958C24.2781 15.9321 24.3073 15.8724 24.3471 15.8201C24.387 15.7677 24.4369 15.7238 24.4939 15.6908C24.5508 15.6578 24.6137 15.6364 24.679 15.6279C24.7442 15.6193 24.8106 15.6237 24.8741 15.6409C24.9376 15.6581 24.9971 15.6877 25.0492 15.728C25.1012 15.7683 25.1448 15.8184 25.1774 15.8756L26.1409 17.5444ZM31.465 23.3081C31.5427 23.4154 31.5746 23.5491 31.5537 23.6798C31.5328 23.8106 31.4609 23.9277 31.3536 24.0054C31.2464 24.0831 31.1127 24.115 30.982 24.0941C30.8512 24.0732 30.7341 24.0012 30.6564 23.894C30.6066 23.8227 30.5402 23.7646 30.4629 23.7248C30.3855 23.6849 30.2996 23.6646 30.2127 23.6655H29.8834C29.7385 23.6655 29.5996 23.7231 29.4972 23.8255C29.3948 23.9279 29.3372 24.0668 29.3372 24.2116C29.3372 24.3565 29.3948 24.4954 29.4972 24.5978C29.5996 24.7002 29.7385 24.7578 29.8834 24.7578H30.1172C30.4937 24.758 30.857 24.8956 31.1392 25.1447C31.4215 25.3939 31.6031 25.7374 31.6501 26.1108C31.6971 26.4843 31.6062 26.8621 31.3946 27.1734C31.1829 27.4846 30.8649 27.708 30.5003 27.8015V28.035C30.5003 28.1676 30.4476 28.2948 30.3538 28.3886C30.2601 28.4823 30.1329 28.535 30.0003 28.535C29.8677 28.535 29.7405 28.4823 29.6467 28.3886C29.553 28.2948 29.5003 28.1676 29.5003 28.035V27.822C29.1127 27.7459 28.7681 27.5263 28.5355 27.2071C28.4578 27.0999 28.4259 26.9662 28.4467 26.8355C28.4676 26.7047 28.5396 26.5876 28.6468 26.5099C28.754 26.4322 28.8877 26.4003 29.0185 26.4211C29.1492 26.442 29.2663 26.514 29.344 26.6212C29.3938 26.6926 29.4602 26.7507 29.5376 26.7905C29.6149 26.8303 29.7008 26.8506 29.7878 26.8497H30.1172C30.261 26.8482 30.3984 26.79 30.4996 26.6877C30.6007 26.5855 30.6574 26.4474 30.6574 26.3036C30.6574 26.1598 30.6007 26.0218 30.4996 25.9195C30.3984 25.8173 30.261 25.7591 30.1172 25.7575H29.8833C29.5069 25.7572 29.1435 25.6196 28.8613 25.3705C28.5791 25.1214 28.3974 24.7779 28.3504 24.4045C28.3034 24.031 28.3943 23.6532 28.606 23.3419C28.8176 23.0307 29.1356 22.8073 29.5002 22.7138V22.4803C29.5002 22.3477 29.5529 22.2205 29.6467 22.1267C29.7404 22.0329 29.8676 21.9803 30.0002 21.9803C30.1328 21.9803 30.26 22.0329 30.3538 22.1267C30.4475 22.2205 30.5002 22.3477 30.5002 22.4803V22.6932C30.8878 22.7693 31.2324 22.9889 31.465 23.3081H31.465ZM30 20.3759C30.9655 20.3759 31.9094 20.6622 32.7122 21.1986C33.515 21.7351 34.1407 22.4975 34.5102 23.3896C34.8797 24.2816 34.9764 25.2632 34.788 26.2102C34.5997 27.1572 34.1347 28.027 33.452 28.7098C32.7692 29.3925 31.8994 29.8575 30.9524 30.0458C30.0054 30.2342 29.0238 30.1375 28.1318 29.768C27.2397 29.3985 26.4773 28.7728 25.9408 27.97C25.4044 27.1672 25.1181 26.2233 25.1181 25.2578C25.1181 23.963 25.6324 22.7213 26.548 21.8058C27.4635 20.8902 28.7052 20.3759 30 20.3759ZM24.1803 44.8578C24.6 42.0261 27.0562 39.835 30 39.835C32.9437 39.835 35.4 42.0261 35.8196 44.8578C35.8359 44.9645 35.8288 45.0735 35.799 45.1772C35.7691 45.2809 35.7172 45.377 35.6467 45.4587C35.5761 45.5404 35.4888 45.6058 35.3905 45.6506C35.2923 45.6953 35.1855 45.7182 35.0776 45.7177H24.9223C24.8144 45.7182 24.7076 45.6953 24.6094 45.6505C24.5112 45.6058 24.4238 45.5404 24.3533 45.4586C24.2828 45.3769 24.2308 45.2809 24.2009 45.1772C24.1711 45.0735 24.164 44.9645 24.1803 44.8578ZM30 32.851C29.3711 32.851 28.7564 33.0375 28.2335 33.3868C27.7106 33.7362 27.3031 34.2328 27.0625 34.8137C26.8218 35.3947 26.7588 36.034 26.8815 36.6508C27.0042 37.2676 27.307 37.8341 27.7517 38.2788C28.1963 38.7234 28.7629 39.0262 29.3796 39.1489C29.9964 39.2716 30.6357 39.2086 31.2167 38.968C31.7977 38.7273 32.2942 38.3198 32.6436 37.7969C32.993 37.274 33.1794 36.6593 33.1794 36.0305C33.1794 35.1872 32.8444 34.3785 32.2482 33.7823C31.6519 33.186 30.8432 32.851 30 32.851ZM39.5859 29.4213C40.2148 29.4214 40.8295 29.6079 41.3523 29.9573C41.8751 30.3067 42.2826 30.8032 42.5233 31.3842C42.7639 31.9652 42.8268 32.6045 42.7041 33.2212C42.5814 33.838 42.2786 34.4045 41.8339 34.8491C41.3892 35.2938 40.8227 35.5966 40.2059 35.7192C39.5892 35.8419 38.9499 35.7789 38.3689 35.5383C37.788 35.2976 37.2914 34.8901 36.9421 34.3672C36.5927 33.8444 36.4062 33.2297 36.4062 32.6008C36.4062 31.7576 36.7412 30.9489 37.3375 30.3526C37.9338 29.7563 38.7425 29.4213 39.5857 29.4213H39.5859ZM25.9084 40.1921C25.4813 39.0804 24.728 38.1239 23.7474 37.4481C22.7669 36.7723 21.6049 36.4088 20.414 36.4053C17.4703 36.4053 15.014 38.5964 14.5944 41.4281C14.5781 41.5348 14.5851 41.6438 14.615 41.7475C14.6448 41.8512 14.6968 41.9473 14.7673 42.029C14.8378 42.1107 14.9252 42.1762 15.0234 42.2209C15.1217 42.2656 15.2284 42.2885 15.3364 42.2881H24.037C24.5114 41.4691 25.1482 40.7559 25.9084 40.1921ZM45.4056 41.4281C44.9862 38.5964 42.5295 36.4053 39.5859 36.4053C38.395 36.4088 37.2331 36.7723 36.2525 37.4481C35.272 38.1239 34.5187 39.0804 34.0915 40.1921C34.8517 40.7559 35.4886 41.4692 35.963 42.2881H44.6636C44.7715 42.2885 44.8783 42.2656 44.9765 42.2209C45.0747 42.1762 45.1621 42.1107 45.2326 42.029C45.3031 41.9473 45.3551 41.8512 45.385 41.7475C45.4148 41.6438 45.4219 41.5348 45.4056 41.4281Z" fill="white"/>
</g>
<defs>
<clipPath id="clip0_37_520">
<rect width="32" height="32" fill="white" transform="translate(14 14)"/>
</clipPath>
</defs>
</svg>
