<svg width="19" height="19" viewBox="0 0 19 19" fill="none" xmlns="http://www.w3.org/2000/svg">
<path d="M6.72982 5.54167C6.72982 6.41612 6.02094 7.125 5.14648 7.125C4.27203 7.125 3.56315 6.41612 3.56315 5.54167C3.56315 4.66722 4.27203 3.95833 5.14648 3.95833C6.02094 3.95833 6.72982 4.66722 6.72982 5.54167ZM1.97982 5.54167C1.97982 7.29057 3.39758 8.70833 5.14648 8.70833C6.89539 8.70833 8.31315 7.29057 8.31315 5.54167C8.31315 3.79276 6.89539 2.375 5.14648 2.375C3.39758 2.375 1.97982 3.79276 1.97982 5.54167ZM7.12565 13.0625C7.12565 11.9694 6.23955 11.0833 5.14648 11.0833C4.05342 11.0833 3.16732 11.9694 3.16732 13.0625V15.0417H7.12565V13.0625ZM8.70898 16.625H1.58398V13.0625C1.58398 11.095 3.17897 9.5 5.14648 9.5C7.114 9.5 8.70898 11.095 8.70898 13.0625V16.625ZM15.4382 5.54167C15.4382 6.41612 14.7293 7.125 13.8548 7.125C12.9803 7.125 12.2715 6.41612 12.2715 5.54167C12.2715 4.66722 12.9803 3.95833 13.8548 3.95833C14.7293 3.95833 15.4382 4.66722 15.4382 5.54167ZM10.6882 5.54167C10.6882 7.29057 12.1059 8.70833 13.8548 8.70833C15.6037 8.70833 17.0215 7.29057 17.0215 5.54167C17.0215 3.79276 15.6037 2.375 13.8548 2.375C12.1059 2.375 10.6882 3.79276 10.6882 5.54167ZM15.834 13.0625C15.834 11.9694 14.9479 11.0833 13.8548 11.0833C12.7618 11.0833 11.8757 11.9694 11.8757 13.0625V15.0417H15.834V13.0625ZM10.2923 15.0417V13.0625C10.2923 11.095 11.8873 9.5 13.8548 9.5C15.8223 9.5 17.4173 11.095 17.4173 13.0625V16.625H10.2923V15.0417Z" fill="#525252"/>
</svg>
