<svg width="15" height="15" viewBox="0 0 15 15" fill="none" xmlns="http://www.w3.org/2000/svg">
<path d="M9.08333 14.625C8.6461 14.625 8.29167 14.2706 8.29167 13.8333V7.5C8.29167 7.06276 8.6461 6.70833 9.08333 6.70833H13.8333C14.2706 6.70833 14.625 7.06276 14.625 7.5V13.8333C14.625 14.2706 14.2706 14.625 13.8333 14.625H9.08333ZM1.16667 8.29167C0.729445 8.29167 0.375 7.93724 0.375 7.5V1.16667C0.375 0.729445 0.729445 0.375 1.16667 0.375H5.91667C6.3539 0.375 6.70833 0.729445 6.70833 1.16667V7.5C6.70833 7.93724 6.3539 8.29167 5.91667 8.29167H1.16667ZM5.125 6.70833V1.95833H1.95833V6.70833H5.125ZM1.16667 14.625C0.729445 14.625 0.375 14.2706 0.375 13.8333V10.6667C0.375 10.2294 0.729445 9.875 1.16667 9.875H5.91667C6.3539 9.875 6.70833 10.2294 6.70833 10.6667V13.8333C6.70833 14.2706 6.3539 14.625 5.91667 14.625H1.16667ZM1.95833 13.0417H5.125V11.4583H1.95833V13.0417ZM9.875 13.0417H13.0417V8.29167H9.875V13.0417ZM8.29167 1.16667C8.29167 0.729445 8.6461 0.375 9.08333 0.375H13.8333C14.2706 0.375 14.625 0.729445 14.625 1.16667V4.33333C14.625 4.77056 14.2706 5.125 13.8333 5.125H9.08333C8.6461 5.125 8.29167 4.77056 8.29167 4.33333V1.16667ZM9.875 1.95833V3.54167H13.0417V1.95833H9.875Z" fill="#525252"/>
</svg>
