<svg width="15" height="15" viewBox="0 0 15 15" fill="none" xmlns="http://www.w3.org/2000/svg">
<path d="M14.0243 4.11444C13.9404 2.71858 12.7748 1.625 11.371 1.625H10.6875V1.09375C10.6875 0.8005 10.4495 0.5625 10.1563 0.5625C9.86301 0.5625 9.62501 0.8005 9.62501 1.09375V1.625H5.37501V1.09375C5.37501 0.8005 5.13701 0.5625 4.84376 0.5625C4.55051 0.5625 4.31251 0.8005 4.31251 1.09375V1.625H3.62905C2.22496 1.625 1.0594 2.71858 0.975726 4.11444C0.818211 6.73987 0.821133 9.40303 0.984492 12.0298C1.06737 13.3638 2.13598 14.4324 3.46994 14.5153C4.80684 14.5984 6.15329 14.6398 7.49974 14.6398C8.84593 14.6398 10.1926 14.5984 11.5295 14.5153C12.8635 14.4324 13.9321 13.3638 14.015 12.0298C14.1786 9.40436 14.1815 6.74147 14.0243 4.11444ZM12.9549 11.9639C12.9049 12.7642 12.264 13.4052 11.4639 13.4549C8.83371 13.6182 6.1663 13.6182 3.53609 13.4549C2.73576 13.4049 2.0948 12.764 2.04513 11.9639C1.91949 9.94438 1.89373 7.90358 1.96093 5.875H13.0394C13.1063 7.90438 13.0805 9.94517 12.9549 11.9639ZM4.84376 3.75C5.13701 3.75 5.37501 3.512 5.37501 3.21875V2.6875H9.62501V3.21875C9.62501 3.512 9.86301 3.75 10.1563 3.75C10.4495 3.75 10.6875 3.512 10.6875 3.21875V2.6875H11.371C12.2138 2.6875 12.9134 3.34227 12.9636 4.17792C12.9761 4.38883 12.9814 4.60106 12.9918 4.8125H2.00821C2.01884 4.60106 2.02388 4.38883 2.03637 4.17792C2.08657 3.34227 2.78596 2.6875 3.62905 2.6875H4.31251V3.21875C4.31251 3.512 4.55051 3.75 4.84376 3.75Z" fill="white"/>
<path d="M4.84375 9.0625C5.28385 9.0625 5.64062 8.70573 5.64062 8.26562C5.64062 7.82552 5.28385 7.46875 4.84375 7.46875C4.40365 7.46875 4.04688 7.82552 4.04688 8.26562C4.04688 8.70573 4.40365 9.0625 4.84375 9.0625Z" fill="white"/>
<path d="M7.5 9.0625C7.9401 9.0625 8.29688 8.70573 8.29688 8.26562C8.29688 7.82552 7.9401 7.46875 7.5 7.46875C7.0599 7.46875 6.70312 7.82552 6.70312 8.26562C6.70312 8.70573 7.0599 9.0625 7.5 9.0625Z" fill="white"/>
<path d="M4.84375 11.7188C5.28385 11.7188 5.64062 11.362 5.64062 10.9219C5.64062 10.4818 5.28385 10.125 4.84375 10.125C4.40365 10.125 4.04688 10.4818 4.04688 10.9219C4.04688 11.362 4.40365 11.7188 4.84375 11.7188Z" fill="white"/>
<path d="M10.1562 9.0625C10.5964 9.0625 10.9531 8.70573 10.9531 8.26562C10.9531 7.82552 10.5964 7.46875 10.1562 7.46875C9.71615 7.46875 9.35938 7.82552 9.35938 8.26562C9.35938 8.70573 9.71615 9.0625 10.1562 9.0625Z" fill="white"/>
<path d="M10.1562 11.7188C10.5964 11.7188 10.9531 11.362 10.9531 10.9219C10.9531 10.4818 10.5964 10.125 10.1562 10.125C9.71615 10.125 9.35938 10.4818 9.35938 10.9219C9.35938 11.362 9.71615 11.7188 10.1562 11.7188Z" fill="white"/>
<path d="M7.5 11.7188C7.9401 11.7188 8.29688 11.362 8.29688 10.9219C8.29688 10.4818 7.9401 10.125 7.5 10.125C7.0599 10.125 6.70312 10.4818 6.70312 10.9219C6.70312 11.362 7.0599 11.7188 7.5 11.7188Z" fill="white"/>
</svg>
