<svg width="17" height="18" viewBox="0 0 17 18" fill="none" xmlns="http://www.w3.org/2000/svg">
<path d="M8.5 17.5C6.22957 17.5 4.09501 16.6159 2.48957 15.0104C0.884133 13.405 0 11.2704 0 9C0 6.72957 0.884166 4.59504 2.48957 2.98957C4.09497 1.3841 6.22957 0.5 8.5 0.5C10.7704 0.5 12.905 1.38413 14.5104 2.98957C16.1159 4.59501 17 6.72957 17 9C17 11.2704 16.1158 13.405 14.5104 15.0104C12.905 16.6159 10.7704 17.5 8.5 17.5ZM8.5 1.5625C4.39895 1.5625 1.0625 4.89895 1.0625 9C1.0625 13.1011 4.39895 16.4375 8.5 16.4375C12.6011 16.4375 15.9375 13.1011 15.9375 9C15.9375 4.89895 12.6011 1.5625 8.5 1.5625Z" fill="white"/>
<path d="M8.5 8.46875C7.76767 8.46875 7.17188 7.87295 7.17188 7.14062C7.17188 6.4083 7.76767 5.8125 8.5 5.8125C9.23233 5.8125 9.82812 6.4083 9.82812 7.14062C9.82812 7.43401 10.066 7.67188 10.3594 7.67188C10.6528 7.67188 10.8906 7.43401 10.8906 7.14062C10.8906 6.00504 10.0945 5.05255 9.03125 4.81023V4.21875C9.03125 3.92537 8.79342 3.6875 8.5 3.6875C8.20658 3.6875 7.96875 3.92537 7.96875 4.21875V4.81023C6.90552 5.05255 6.10938 6.00504 6.10938 7.14062C6.10938 8.45882 7.1818 9.53125 8.5 9.53125C9.23233 9.53125 9.82812 10.127 9.82812 10.8594C9.82812 11.5917 9.23233 12.1875 8.5 12.1875C7.76767 12.1875 7.17188 11.5917 7.17188 10.8594C7.17188 10.566 6.93404 10.3281 6.64062 10.3281C6.34721 10.3281 6.10938 10.566 6.10938 10.8594C6.10938 11.995 6.90552 12.9475 7.96875 13.1898V13.7812C7.96875 14.0746 8.20658 14.3125 8.5 14.3125C8.79342 14.3125 9.03125 14.0746 9.03125 13.7812V13.1898C10.0945 12.9475 10.8906 11.995 10.8906 10.8594C10.8906 9.54118 9.8182 8.46875 8.5 8.46875Z" fill="white"/>
</svg>
