<svg width="19" height="19" viewBox="0 0 19 19" fill="none" xmlns="http://www.w3.org/2000/svg">
<path d="M9.50457 17.4188C5.13231 17.4188 1.58789 13.8744 1.58789 9.50214C1.58789 5.12992 5.13231 1.58551 9.50457 1.58551C13.8768 1.58551 17.4212 5.12992 17.4212 9.50214C17.4212 13.8744 13.8768 17.4188 9.50457 17.4188ZM9.50457 15.8355C13.0024 15.8355 15.8379 13 15.8379 9.50214C15.8379 6.00437 13.0024 3.16884 9.50457 3.16884C6.00675 3.16884 3.17122 6.00437 3.17122 9.50214C3.17122 13 6.00675 15.8355 9.50457 15.8355ZM6.73372 11.0855H11.0879C11.3065 11.0855 11.4837 10.9083 11.4837 10.6896C11.4837 10.4711 11.3065 10.2938 11.0879 10.2938H7.92124C6.82816 10.2938 5.94206 9.40777 5.94206 8.31464C5.94206 7.22161 6.82816 6.33551 7.92124 6.33551H8.71291V4.75218H10.2962V6.33551H12.2754V7.9188H7.92124C7.70261 7.9188 7.52539 8.09606 7.52539 8.31464C7.52539 8.5333 7.70261 8.71047 7.92124 8.71047H11.0879C12.181 8.71047 13.0671 9.59658 13.0671 10.6896C13.0671 11.7828 12.181 12.6688 11.0879 12.6688H10.2962V14.2521H8.71291V12.6688H6.73372V11.0855Z" fill="#525252"/>
</svg>
