<svg width="60" height="60" viewBox="0 0 60 60" fill="none" xmlns="http://www.w3.org/2000/svg">
<circle cx="30" cy="30" r="30" fill="#4A5D52" fill-opacity="0.1"/>
<path d="M30.0072 43.3369C22.6434 43.3369 16.6738 37.3675 16.6738 30.0036C16.6738 22.6399 22.6434 16.6703 30.0072 16.6703C37.3709 16.6703 43.3405 22.6399 43.3405 30.0036C43.3405 37.3675 37.3709 43.3369 30.0072 43.3369ZM30.0072 40.6703C35.8983 40.6703 40.6739 35.8947 40.6739 30.0036C40.6739 24.1126 35.8983 19.337 30.0072 19.337C24.1161 19.337 19.3405 24.1126 19.3405 30.0036C19.3405 35.8947 24.1161 40.6703 30.0072 40.6703ZM25.3405 32.6703H32.6739C33.042 32.6703 33.3405 32.3719 33.3405 32.0036C33.3405 31.6355 33.042 31.3369 32.6739 31.3369H27.3405C25.4995 31.3369 24.0072 29.8447 24.0072 28.0036C24.0072 26.1627 25.4995 24.6703 27.3405 24.6703H28.6739V22.0037H31.3405V24.6703H34.6739V27.3369H27.3405C26.9723 27.3369 26.6738 27.6355 26.6738 28.0036C26.6738 28.3719 26.9723 28.6703 27.3405 28.6703H32.6739C34.5148 28.6703 36.0072 30.1627 36.0072 32.0036C36.0072 33.8447 34.5148 35.3369 32.6739 35.3369H31.3405V38.0036H28.6739V35.3369H25.3405V32.6703Z" fill="#4A5D52"/>
</svg>
