<svg width="19" height="19" viewBox="0 0 19 19" fill="none" xmlns="http://www.w3.org/2000/svg">
<path d="M3.17122 12.6667V3.16668H1.58789V1.58334H3.96289C4.40012 1.58334 4.75456 1.93779 4.75456 2.37501V11.875H14.6016L16.185 5.54168H6.33789V3.95834H17.1989C17.6362 3.95834 17.9906 4.31279 17.9906 4.75001C17.9906 4.81474 17.9827 4.87923 17.9669 4.94202L15.9878 12.8587C15.8997 13.2111 15.5831 13.4583 15.2198 13.4583H3.96289C3.52567 13.4583 3.17122 13.1039 3.17122 12.6667ZM4.75456 18.2083C3.88011 18.2083 3.17122 17.4995 3.17122 16.625C3.17122 15.7505 3.88011 15.0417 4.75456 15.0417C5.62901 15.0417 6.33789 15.7505 6.33789 16.625C6.33789 17.4995 5.62901 18.2083 4.75456 18.2083ZM14.2546 18.2083C13.3801 18.2083 12.6712 17.4995 12.6712 16.625C12.6712 15.7505 13.3801 15.0417 14.2546 15.0417C15.129 15.0417 15.8379 15.7505 15.8379 16.625C15.8379 17.4995 15.129 18.2083 14.2546 18.2083Z" fill="#525252"/>
</svg>
