<svg width="19" height="19" viewBox="0 0 19 19" fill="none" xmlns="http://www.w3.org/2000/svg">
<path d="M14.2502 2.96875H13.2606V2.375C13.2606 2.21753 13.1981 2.06651 13.0867 1.95516C12.9754 1.84381 12.8244 1.78125 12.6669 1.78125C12.5094 1.78125 12.3584 1.84381 12.2471 1.95516C12.1357 2.06651 12.0731 2.21753 12.0731 2.375V2.96875H6.92732V2.375C6.92732 2.21753 6.86476 2.06651 6.75341 1.95516C6.64206 1.84381 6.49104 1.78125 6.33357 1.78125C6.17609 1.78125 6.02507 1.84381 5.91372 1.95516C5.80237 2.06651 5.73982 2.21753 5.73982 2.375V2.96875H4.75023C4.34913 2.92226 3.9427 2.96707 3.56136 3.09982C3.18001 3.23258 2.83362 3.44985 2.5481 3.73537C2.26258 4.02089 2.04531 4.36728 1.91256 4.74863C1.7798 5.12997 1.73499 5.53639 1.78148 5.9375V14.25C1.73499 14.6511 1.7798 15.0575 1.91256 15.4389C2.04531 15.8202 2.26258 16.1666 2.5481 16.4521C2.83362 16.7377 3.18001 16.9549 3.56136 17.0877C3.9427 17.2204 4.34913 17.2652 4.75023 17.2188H14.2502C14.6513 17.2652 15.0578 17.2204 15.4391 17.0877C15.8205 16.9549 16.1668 16.7377 16.4524 16.4521C16.7379 16.1666 16.9552 15.8202 17.0879 15.4389C17.2207 15.0575 17.2655 14.6511 17.219 14.25V5.9375C17.2655 5.53639 17.2207 5.12997 17.0879 4.74863C16.9552 4.36728 16.7379 4.02089 16.4524 3.73537C16.1668 3.44985 15.8205 3.23258 15.4391 3.09982C15.0578 2.96707 14.6513 2.92226 14.2502 2.96875ZM4.75023 4.15625H5.73982V4.75C5.73982 4.90747 5.80237 5.0585 5.91372 5.16984C6.02507 5.28119 6.17609 5.34375 6.33357 5.34375C6.49104 5.34375 6.64206 5.28119 6.75341 5.16984C6.86476 5.0585 6.92732 4.90747 6.92732 4.75V4.15625H12.0731V4.75C12.0731 4.90747 12.1357 5.0585 12.2471 5.16984C12.3584 5.28119 12.5094 5.34375 12.6669 5.34375C12.8244 5.34375 12.9754 5.28119 13.0867 5.16984C13.1981 5.0585 13.2606 4.90747 13.2606 4.75V4.15625H14.2502C15.4987 4.15625 16.0315 4.68904 16.0315 5.9375V6.53125H2.96898V5.9375C2.96898 4.68904 3.50177 4.15625 4.75023 4.15625ZM14.2502 16.0312H4.75023C3.50177 16.0312 2.96898 15.4985 2.96898 14.25V7.71875H16.0315V14.25C16.0315 15.4985 15.4987 16.0312 14.2502 16.0312ZM11.899 10.1333C11.9542 10.1885 11.9979 10.2539 12.0278 10.326C12.0577 10.3981 12.073 10.4753 12.073 10.5533C12.073 10.6313 12.0577 10.7086 12.0278 10.7806C11.9979 10.8527 11.9542 10.9182 11.899 10.9733L9.26273 13.6167C9.20771 13.6719 9.14233 13.7157 9.07032 13.7457C8.99832 13.7756 8.92112 13.791 8.84315 13.791C8.76518 13.791 8.68798 13.7756 8.61598 13.7457C8.54397 13.7157 8.47859 13.6719 8.42357 13.6167L7.10148 12.2946C6.9966 12.182 6.9395 12.0332 6.94222 11.8793C6.94493 11.7255 7.00725 11.5788 7.11603 11.47C7.22482 11.3612 7.37158 11.2989 7.5254 11.2962C7.67922 11.2934 7.82809 11.3505 7.94065 11.4554L8.84077 12.3548L11.0574 10.1381C11.1122 10.0823 11.1775 10.0378 11.2496 10.0074C11.3216 9.9769 11.399 9.96098 11.4772 9.96054C11.5554 9.9601 11.633 9.97514 11.7054 10.0048C11.7778 10.0345 11.8436 10.0781 11.899 10.1333Z" fill="#525252"/>
</svg>
