<svg width="16" height="15" viewBox="0 0 16 15" fill="none" xmlns="http://www.w3.org/2000/svg">
<path d="M2.45833 3.54168C2.45833 2.88584 2.98999 2.35418 3.64583 2.35418C4.30167 2.35418 4.83333 2.88584 4.83333 3.54168C4.83333 4.19752 4.30167 4.72918 3.64583 4.72918C2.98999 4.72918 2.45833 4.19752 2.45833 3.54168ZM3.64583 0.770844C2.11554 0.770844 0.875 2.01139 0.875 3.54168C0.875 5.07197 2.11554 6.31251 3.64583 6.31251C5.17613 6.31251 6.41667 5.07197 6.41667 3.54168C6.41667 2.01139 5.17613 0.770844 3.64583 0.770844ZM8 4.33334H14.3333V2.75001H8V4.33334ZM11.1667 11.4583C11.1667 10.8025 11.6983 10.2708 12.3542 10.2708C13.01 10.2708 13.5417 10.8025 13.5417 11.4583C13.5417 12.1142 13.01 12.6458 12.3542 12.6458C11.6983 12.6458 11.1667 12.1142 11.1667 11.4583ZM12.3542 8.68751C10.8239 8.68751 9.58333 9.92805 9.58333 11.4583C9.58333 12.9886 10.8239 14.2292 12.3542 14.2292C13.8845 14.2292 15.125 12.9886 15.125 11.4583C15.125 9.92805 13.8845 8.68751 12.3542 8.68751ZM1.66667 10.6667V12.25H8V10.6667H1.66667Z" fill="#4A5D52"/>
</svg>
