<svg width="17" height="18" viewBox="0 0 17 18" fill="none" xmlns="http://www.w3.org/2000/svg">
<path d="M9.75898 14.7498C8.95898 15.5832 8.04232 16.4415 7.00065 17.3332C2.55898 13.5415 0.333984 10.2665 0.333984 7.49984C0.333984 3.34984 3.50065 0.666504 7.00065 0.666504C10.4923 0.666504 13.659 3.3415 13.6673 7.47484L15.409 5.73317L16.584 6.9165L12.834 10.6665L9.08398 6.9165L10.259 5.74151L12.0007 7.47484C11.9923 4.45817 9.78398 2.33317 7.00065 2.33317C4.20898 2.33317 2.00065 4.47484 2.00065 7.49984C2.00065 9.44984 3.62565 12.0332 7.00065 15.1165C7.53398 14.6248 8.02565 14.1498 8.47565 13.6915C8.32901 13.4022 8.25197 13.0826 8.25065 12.7582C8.25065 12.2056 8.47014 11.6757 8.86084 11.285C9.25155 10.8943 9.78145 10.6748 10.334 10.6748C10.8865 10.6748 11.4164 10.8943 11.8071 11.285C12.1978 11.6757 12.4173 12.2056 12.4173 12.7582C12.417 13.0804 12.3417 13.3982 12.1974 13.6863C12.0531 13.9744 11.8437 14.225 11.5858 14.4183C11.3279 14.6115 11.0286 14.742 10.7115 14.7996C10.3945 14.8571 10.0683 14.8401 9.75898 14.7498Z" fill="white"/>
</svg>
