<svg width="11" height="14" viewBox="0 0 11 14" fill="none" xmlns="http://www.w3.org/2000/svg">
<path d="M5.15872 13.8173C5.23479 13.9314 5.36287 14 5.5 14C5.63713 14 5.76521 13.9315 5.84128 13.8173C6.81195 12.3614 8.24168 10.5632 9.23797 8.73444C10.0346 7.27221 10.4219 6.02509 10.4219 4.92188C10.4219 2.20795 8.21392 0 5.5 0C2.78608 0 0.578125 2.20795 0.578125 4.92188C0.578125 6.02509 0.965394 7.27221 1.76203 8.73444C2.75759 10.5618 4.19004 12.3644 5.15872 13.8173ZM5.5 0.820312C7.7616 0.820312 9.60156 2.66027 9.60156 4.92188C9.60156 5.88448 9.247 7.00323 8.51763 8.342C7.65884 9.91834 6.43335 11.5174 5.5 12.8617C4.56679 11.5176 3.34121 9.91843 2.48237 8.342C1.753 7.00323 1.39844 5.88448 1.39844 4.92188C1.39844 2.66027 3.2384 0.820312 5.5 0.820312Z" fill="white"/>
<path d="M5.5 7.38281C6.85696 7.38281 7.96094 6.27884 7.96094 4.92188C7.96094 3.56491 6.85696 2.46094 5.5 2.46094C4.14304 2.46094 3.03906 3.56491 3.03906 4.92188C3.03906 6.27884 4.14304 7.38281 5.5 7.38281ZM5.5 3.28125C6.40464 3.28125 7.14062 4.01723 7.14062 4.92188C7.14062 5.82652 6.40464 6.5625 5.5 6.5625C4.59536 6.5625 3.85938 5.82652 3.85938 4.92188C3.85938 4.01723 4.59536 3.28125 5.5 3.28125Z" fill="white"/>
</svg>
