<svg width="60" height="60" viewBox="0 0 60 60" fill="none" xmlns="http://www.w3.org/2000/svg">
<circle cx="30" cy="30" r="30" fill="#4A5D52"/>
<g clip-path="url(#clip0_37_549)">
<path d="M41.4793 44.118L28.8933 37.454C28.5653 37.28 28.1653 37.304 27.8553 37.514L18.2313 44.178C17.8713 44.428 17.7153 44.882 17.8473 45.3C17.9753 45.714 18.3633 46 18.7993 46H41.0093C41.4673 46 41.8693 45.688 41.9793 45.24C42.0913 44.794 41.8833 44.332 41.4793 44.118Z" fill="white"/>
<path d="M45.6913 42.218L42.7313 28.892C42.6593 28.566 42.4293 28.3 42.1193 28.178C41.8073 28.056 41.4573 28.098 41.1853 28.286L31.5593 34.95C31.2713 35.15 31.1093 35.484 31.1313 35.83C31.1513 36.18 31.3533 36.492 31.6613 36.654L44.2453 43.318C44.3933 43.396 44.5533 43.436 44.7133 43.436C44.9273 43.436 45.1413 43.368 45.3193 43.23C45.6293 42.994 45.7753 42.6 45.6913 42.218Z" fill="white"/>
<path d="M38.7274 26.702C38.5954 26.284 38.2094 26 37.7714 26H28.6434C26.9834 29.006 24.5274 31.88 23.5174 33.004C22.9494 33.636 22.1354 34 21.2854 34C20.4354 34 19.6214 33.636 19.0534 33.004C18.6634 32.57 18.0594 31.876 17.3674 31.016L14.9474 41.908C14.8594 42.31 15.0254 42.724 15.3654 42.954C15.5334 43.068 15.7294 43.124 15.9234 43.124C16.1234 43.124 16.3214 43.066 16.4934 42.946L38.3394 27.82C38.7014 27.574 38.8554 27.12 38.7274 26.702Z" fill="white"/>
<path d="M21.2853 14C17.4253 14 14.2853 17.14 14.2853 21C14.2853 24.592 19.9013 30.954 20.5413 31.668C20.7313 31.878 21.0013 32 21.2853 32C21.5693 32 21.8393 31.878 22.0293 31.668C22.6693 30.954 28.2853 24.592 28.2853 21C28.2853 17.14 25.1453 14 21.2853 14ZM21.2853 24C19.6293 24 18.2853 22.656 18.2853 21C18.2853 19.344 19.6293 18 21.2853 18C22.9413 18 24.2853 19.344 24.2853 21C24.2853 22.656 22.9413 24 21.2853 24Z" fill="white"/>
</g>
<defs>
<clipPath id="clip0_37_549">
<rect width="32" height="32" fill="white" transform="translate(14 14)"/>
</clipPath>
</defs>
</svg>
