<svg width="18" height="18" viewBox="0 0 18 18" fill="none" xmlns="http://www.w3.org/2000/svg">
<path d="M14.5827 13.0832C14.916 12.4998 15.166 11.8332 15.166 11.0832C15.166 8.99984 13.4994 7.33317 11.416 7.33317C9.33268 7.33317 7.66602 8.99984 7.66602 11.0832C7.66602 13.1665 9.33268 14.8332 11.416 14.8332C12.166 14.8332 12.8327 14.5832 13.416 14.2498L16.0827 16.9165L17.2494 15.7498L14.5827 13.0832ZM11.416 13.1665C10.2494 13.1665 9.33268 12.2498 9.33268 11.0832C9.33268 9.9165 10.2494 8.99984 11.416 8.99984C12.5827 8.99984 13.4994 9.9165 13.4994 11.0832C13.4994 12.2498 12.5827 13.1665 11.416 13.1665ZM8.49935 15.6665V17.3332C3.89935 17.3332 0.166016 13.5998 0.166016 8.99984C0.166016 4.39984 3.89935 0.666504 8.49935 0.666504C12.5327 0.666504 15.891 3.53317 16.666 7.33317H14.941C14.6811 6.32637 14.1893 5.39432 13.5049 4.61152C12.8205 3.82871 11.9624 3.21685 10.9994 2.82484V3.1665C10.9994 4.08317 10.2494 4.83317 9.33268 4.83317H7.66602V6.49984C7.66602 6.95817 7.29102 7.33317 6.83268 7.33317H5.16602V8.99984H6.83268V11.4998H5.99935L2.00768 7.50817C1.89935 7.9915 1.83268 8.48317 1.83268 8.99984C1.83268 12.6748 4.82435 15.6665 8.49935 15.6665Z" fill="white"/>
</svg>
