<svg width="19" height="19" viewBox="0 0 19 19" fill="none" xmlns="http://www.w3.org/2000/svg">
<path d="M15.8373 17.4167H3.17057C2.73335 17.4167 2.37891 17.0622 2.37891 16.625V2.375C2.37891 1.93778 2.73335 1.58333 3.17057 1.58333H15.8373C16.2745 1.58333 16.6289 1.93778 16.6289 2.375V16.625C16.6289 17.0622 16.2745 17.4167 15.8373 17.4167ZM15.0456 15.8333V3.16667H3.96224V15.8333H15.0456ZM7.12891 4.75V6.33333C7.12891 7.64501 8.19221 8.70833 9.50392 8.70833C10.8156 8.70833 11.8789 7.64501 11.8789 6.33333V4.75H13.4623V6.33333C13.4623 8.51944 11.69 10.2917 9.50392 10.2917C7.31778 10.2917 5.54557 8.51944 5.54557 6.33333V4.75H7.12891Z" fill="#525252"/>
</svg>
