<svg width="240" height="210" viewBox="0 0 240 210" fill="none" xmlns="http://www.w3.org/2000/svg">
<path d="M203.095 42.8299C219.012 69.1344 216.571 101.295 206.145 126.891C195.668 152.534 177.159 171.566 153.157 183.75C129.153 195.887 99.6594 201.129 69.0967 193.289C38.4833 185.45 6.85266 164.482 3.74941 140.728C0.69921 116.973 26.1757 90.3383 50.0763 62.381C73.9263 34.4244 96.2 5.09669 124.525 0.610382C152.801 -3.82881 187.127 16.5254 203.095 42.8299Z" fill="url(#paint0_linear_415_2773)"/>
<g clip-path="url(#clip0_415_2773)">
<path d="M231.405 134.871L230.528 134.282L231.476 133.817C231.89 133.614 232.06 133.115 231.858 132.702C231.655 132.288 231.154 132.117 230.743 132.32L229.794 132.785L229.866 131.731C229.897 131.272 229.551 130.874 229.091 130.843C228.631 130.812 228.234 131.159 228.203 131.618L228.131 132.672L227.254 132.083C226.873 131.826 226.355 131.927 226.098 132.31C225.841 132.692 225.943 133.21 226.325 133.466L227.202 134.056L226.253 134.521C225.84 134.723 225.669 135.223 225.872 135.636C226.008 135.913 226.277 136.081 226.564 136.1C226.706 136.11 226.851 136.084 226.987 136.017L227.936 135.552L227.864 136.606C227.833 137.065 228.179 137.463 228.639 137.494C229.099 137.526 229.496 137.178 229.527 136.719L229.598 135.665L230.475 136.254C230.601 136.339 230.741 136.384 230.883 136.394C231.17 136.414 231.46 136.284 231.632 136.027C231.888 135.645 231.787 135.127 231.405 134.871Z" fill="#4A5D52"/>
<path d="M224.418 134.396L223.543 133.807L224.491 133.342C224.904 133.139 225.075 132.64 224.872 132.227C224.669 131.813 224.169 131.642 223.757 131.845L222.808 132.31L222.88 131.256C222.911 130.797 222.565 130.399 222.105 130.368C221.646 130.337 221.249 130.684 221.217 131.143L221.146 132.197L220.269 131.608C219.886 131.351 219.369 131.452 219.112 131.835C218.856 132.217 218.957 132.735 219.339 132.991L220.216 133.581L219.268 134.046C218.854 134.248 218.683 134.748 218.886 135.161C219.023 135.438 219.292 135.606 219.579 135.625C219.72 135.635 219.865 135.609 220.001 135.542L220.95 135.077L220.878 136.131C220.847 136.59 221.193 136.988 221.653 137.019C222.113 137.051 222.51 136.703 222.541 136.244L222.613 135.19L223.49 135.779C223.615 135.864 223.755 135.909 223.896 135.919C224.184 135.938 224.473 135.809 224.645 135.552C224.903 135.17 224.801 134.652 224.418 134.396Z" fill="#4A5D52"/>
<path d="M238.39 135.346L237.513 134.757L238.461 134.292C238.875 134.089 239.046 133.59 238.843 133.177C238.64 132.763 238.139 132.592 237.728 132.795L236.779 133.26L236.851 132.206C236.882 131.747 236.536 131.349 236.076 131.318C235.616 131.287 235.219 131.634 235.188 132.093L235.116 133.147L234.239 132.558C233.858 132.301 233.34 132.402 233.083 132.785C232.826 133.167 232.928 133.685 233.31 133.941L234.186 134.53L233.238 134.996C232.824 135.198 232.653 135.697 232.857 136.111C232.993 136.388 233.263 136.556 233.549 136.575C233.691 136.585 233.836 136.559 233.972 136.492L234.921 136.027L234.849 137.081C234.818 137.54 235.164 137.938 235.624 137.969C236.084 138 236.48 137.653 236.512 137.194L236.583 136.14L237.46 136.729C237.586 136.814 237.726 136.859 237.868 136.869C238.155 136.888 238.445 136.759 238.617 136.502C238.874 136.12 238.772 135.602 238.39 135.346Z" fill="#4A5D52"/>
<path d="M223.424 140.481L219.267 140.198C218.807 140.167 218.461 139.769 218.492 139.31C218.524 138.851 218.92 138.504 219.38 138.535L223.537 138.818C223.997 138.849 224.343 139.247 224.312 139.706C224.281 140.165 223.884 140.512 223.424 140.481Z" fill="#607D8B" fill-opacity="0.2"/>
<path d="M230.492 140.961L226.335 140.679C225.875 140.647 225.528 140.25 225.56 139.791C225.591 139.332 225.988 138.984 226.448 139.016L230.605 139.298C231.064 139.33 231.411 139.727 231.38 140.186C231.348 140.645 230.951 140.992 230.492 140.961Z" fill="#607D8B" fill-opacity="0.2"/>
<path d="M237.558 141.442L233.401 141.159C232.941 141.128 232.595 140.73 232.626 140.271C232.657 139.812 233.054 139.465 233.514 139.496L237.671 139.779C238.131 139.81 238.477 140.208 238.446 140.667C238.415 141.126 238.018 141.473 237.558 141.442Z" fill="#607D8B" fill-opacity="0.2"/>
<path d="M222.105 130.368C221.646 130.337 221.249 130.684 221.217 131.143L221.146 132.197L220.269 131.608C220.142 131.523 220.002 131.477 219.861 131.467C219.574 131.448 219.285 131.579 219.112 131.835C218.856 132.217 218.957 132.735 219.339 132.991L220.216 133.581L219.268 134.046C218.854 134.248 218.683 134.748 218.886 135.161C219.023 135.438 219.292 135.606 219.579 135.625C219.72 135.635 219.865 135.609 220.001 135.542L220.95 135.077L220.878 136.131C220.847 136.59 221.193 136.988 221.653 137.019L222.105 130.368Z" fill="#4A5D52"/>
<path d="M229.091 130.843C228.631 130.812 228.234 131.159 228.203 131.618L228.131 132.672L227.254 132.083C227.129 131.998 226.988 131.952 226.847 131.942C226.559 131.923 226.27 132.054 226.098 132.31C225.841 132.692 225.943 133.21 226.325 133.466L227.202 134.056L226.253 134.521C225.84 134.723 225.669 135.223 225.872 135.636C226.008 135.913 226.277 136.081 226.564 136.1C226.706 136.11 226.851 136.084 226.987 136.017L227.936 135.552L227.864 136.606C227.833 137.065 228.179 137.463 228.639 137.494C228.666 137.496 228.694 137.496 228.721 137.496L229.172 130.853C229.146 130.848 229.118 130.845 229.091 130.843Z" fill="#4A5D52"/>
<path d="M236.077 131.318C235.617 131.287 235.22 131.634 235.189 132.093L235.117 133.147L234.24 132.558C234.115 132.473 233.974 132.427 233.833 132.417C233.545 132.398 233.256 132.528 233.084 132.785C232.827 133.167 232.929 133.685 233.311 133.941L234.187 134.53L233.239 134.996C232.825 135.198 232.654 135.697 232.858 136.111C232.994 136.388 233.263 136.556 233.55 136.575C233.692 136.585 233.837 136.559 233.973 136.492L234.922 136.027L234.85 137.081C234.819 137.54 235.165 137.938 235.625 137.969L236.077 131.318Z" fill="#4A5D52"/>
</g>
<g clip-path="url(#clip1_415_2773)">
<path opacity="0.2" d="M22.7292 39.1109C23.3701 38.9842 24.038 38.9973 24.7146 39.1494C24.8963 39.1906 25.0887 39.1353 25.22 39.0004C25.351 38.8667 25.4042 38.6744 25.3595 38.4924C25.0837 37.3639 23.9769 36.6558 22.8405 36.8803L3.71049 40.6608C2.53822 40.8925 1.77335 42.0341 2.00501 43.2064L3.05515 48.5203C3.28681 49.6926 4.42847 50.4575 5.60078 50.2258L17.8227 47.8105C18.1164 47.7525 18.3072 47.4678 18.2491 47.1741L18.1441 46.6427C18.0097 45.9629 18.2179 45.251 18.7 44.7384C18.8061 44.6257 18.859 44.4735 18.8454 44.3198C18.6259 41.8311 20.2959 39.5917 22.7292 39.1109ZM7.45013 44.9649C7.73343 45.0616 7.88481 45.3692 7.78819 45.6525C7.72325 45.8422 7.56356 45.9729 7.37988 46.0092C7.28956 46.0271 7.19374 46.0223 7.10065 45.9905L6.96307 45.9437L6.99121 46.086C7.04925 46.3798 6.85854 46.6644 6.56482 46.7225C6.27114 46.7805 5.98649 46.5898 5.92844 46.2961L5.90031 46.1537L5.7909 46.2494C5.71689 46.3142 5.63008 46.355 5.53976 46.3729C5.35604 46.4092 5.15867 46.349 5.02645 46.1983C4.82934 45.973 4.85232 45.6309 5.07756 45.4338L5.18671 45.3384L5.04947 45.2916C4.76617 45.195 4.61479 44.8874 4.71141 44.6041C4.80802 44.3208 5.11615 44.1693 5.39895 44.266L5.53652 44.3129L5.50839 44.1705C5.45034 43.8768 5.64105 43.5921 5.93478 43.5341C6.2285 43.476 6.51315 43.6667 6.5712 43.9605L6.59934 44.1028L6.70875 44.0071C6.93195 43.8104 7.27558 43.8331 7.47319 44.0583C7.67031 44.2835 7.64732 44.6256 7.42208 44.8227L7.31293 44.9181L7.45013 44.9649ZM11.7013 44.1248C11.9846 44.2214 12.136 44.5291 12.0393 44.8124C11.9744 45.0021 11.8147 45.1328 11.631 45.1691C11.5407 45.187 11.4449 45.1822 11.3518 45.1504L11.2142 45.1036L11.2424 45.2459C11.3004 45.5397 11.1097 45.8243 10.816 45.8824C10.5222 45.9404 10.2376 45.7497 10.1795 45.456L10.1514 45.3136L10.042 45.4093C9.96799 45.4741 9.88118 45.5149 9.79086 45.5328C9.60714 45.5691 9.40977 45.5089 9.27755 45.3582C9.08044 45.1329 9.10342 44.7908 9.32866 44.5937L9.43781 44.4983L9.30057 44.4515C9.01727 44.3549 8.86589 44.0473 8.96251 43.764C9.05862 43.4808 9.36621 43.3294 9.65005 43.4259L9.78763 43.4728L9.75949 43.3304C9.70145 43.0367 9.89216 42.7521 10.1859 42.694C10.4796 42.636 10.7643 42.8267 10.8223 43.1204L10.8504 43.2628L10.9599 43.1671C11.1836 42.9703 11.5261 42.9932 11.7243 43.2182C11.9214 43.4435 11.8984 43.7855 11.6732 43.9827L11.564 44.0781L11.7013 44.1248ZM15.9524 43.2847C16.2357 43.3813 16.3871 43.689 16.2904 43.9723C16.2255 44.162 16.0658 44.2927 15.8821 44.329C15.7918 44.3469 15.696 44.3421 15.6029 44.3103L15.4653 44.2634L15.4935 44.4058C15.5515 44.6996 15.3608 44.9842 15.0671 45.0422C14.7733 45.1003 14.4887 44.9096 14.4306 44.6159L14.4025 44.4735L14.2931 44.5692C14.2191 44.634 14.1323 44.6748 14.042 44.6927C13.8582 44.729 13.6609 44.6688 13.5286 44.5181C13.3315 44.2928 13.3545 43.9507 13.5798 43.7536L13.6889 43.6582L13.5517 43.6114C13.2684 43.5148 13.117 43.2072 13.2136 42.9239C13.3097 42.6407 13.6179 42.4892 13.9011 42.5858L14.0387 42.6327L14.0106 42.4903C13.9525 42.1966 14.1433 41.912 14.437 41.8539C14.7307 41.7959 15.0154 41.9866 15.0734 42.2803L15.1015 42.4227L15.211 42.327C15.4352 42.1301 15.7778 42.153 15.9754 42.3781C16.1725 42.6033 16.1495 42.9454 15.9243 43.1426L15.8151 43.238L15.9524 43.2847Z" fill="#4A5D52"/>
<path d="M27.4986 43.6897L27.3936 43.1583C26.9883 41.1074 24.9896 39.7684 22.9388 40.1736C20.8879 40.5789 19.5488 42.5776 19.9541 44.6285L20.0591 45.1599C19.4733 45.2757 19.0906 45.8468 19.2064 46.4327L20.2565 51.7466C20.3723 52.3324 20.9435 52.7151 21.5293 52.5993L28.9688 51.1291C29.5546 51.0134 29.9373 50.4422 29.8215 49.8564L28.7714 44.5424C28.6556 43.9566 28.0845 43.5739 27.4986 43.6897ZM25.1181 48.4075L25.2554 49.1023C25.3134 49.396 25.1227 49.6807 24.829 49.7387C24.5353 49.7968 24.2506 49.606 24.1926 49.3123L24.0553 48.6175C23.7069 48.4936 23.4228 48.2113 23.3461 47.8232C23.2304 47.2373 23.613 46.6662 24.1989 46.5504C24.7847 46.4346 25.3559 46.8173 25.4717 47.4031C25.5484 47.7913 25.3931 48.1604 25.1181 48.4075ZM25.373 44.1098L22.1847 44.7398L22.0797 44.2084C21.906 43.3293 22.4797 42.4729 23.3588 42.2992C24.2379 42.1255 25.0943 42.6993 25.268 43.5783L25.373 44.1098Z" fill="#4A5D52"/>
</g>
<ellipse opacity="0.1" cx="108.748" cy="202.242" rx="59.2477" ry="7.7583" fill="#1E3265" fill-opacity="0.8"/>
<g clip-path="url(#clip2_415_2773)">
<path d="M160.51 49.4945L93.0607 116.944C91.2427 118.762 88.295 118.762 86.477 116.944L57.4417 87.9089L34.499 110.852L78.2971 154.65C81.3396 157.693 85.4661 159.402 89.7686 159.402C94.0708 159.402 98.1976 157.692 101.24 154.65L183.453 72.4369L160.51 49.4945Z" fill="#4A5D52"/>
<g opacity="0.1">
<path d="M175.866 64.8495L89.0739 151.642C86.6726 154.043 83.6531 155.681 80.3906 156.411C83.1146 158.341 86.386 159.401 89.7686 159.401C94.0708 159.401 98.1976 157.692 101.24 154.65L183.453 72.4363L175.866 64.8495Z" fill="black"/>
</g>
</g>
<defs>
<linearGradient id="paint0_linear_415_2773" x1="109" y1="0" x2="109" y2="197" gradientUnits="userSpaceOnUse">
<stop stop-color="#E4E4E4"/>
<stop offset="1" stop-color="white" stop-opacity="0"/>
</linearGradient>
<clipPath id="clip0_415_2773">
<rect width="20" height="20" fill="white" transform="translate(219.51 124.345) rotate(3.88978)"/>
</clipPath>
<clipPath id="clip1_415_2773">
<rect width="26" height="26" fill="white" transform="translate(0.535156 35.767) rotate(-11.1788)"/>
</clipPath>
<clipPath id="clip2_415_2773">
<rect width="148.954" height="148.954" fill="white" transform="translate(34.499 29.971)"/>
</clipPath>
</defs>
</svg>
