<svg width="12" height="9" viewBox="0 0 12 9" fill="none" xmlns="http://www.w3.org/2000/svg">
<path d="M10.5283 0H1.4717C0.66 0 0 0.739648 0 1.64789V7.35211C0 8.26099 0.660566 9 1.4717 9H10.5283C11.34 9 12 8.26035 12 7.35211V1.64789C12 0.739014 11.34 0 10.5283 0ZM11.3208 7.35211C11.3208 7.84141 10.9647 8.23944 10.5283 8.23944H1.4717C1.03472 8.23944 0.679245 7.84141 0.679245 7.35211V3.19056H11.3208V7.35211ZM11.3208 2.42937H0.679245V1.64789C0.679245 1.15859 1.03472 0.760563 1.4717 0.760563H10.5283C10.9647 0.760563 11.3208 1.15859 11.3208 1.64789V2.42937ZM7.92453 6.67901C7.92453 6.46859 8.07679 6.29873 8.26415 6.29873H9.39623C9.58358 6.29873 9.73585 6.46922 9.73585 6.67901C9.73585 6.8888 9.58358 7.0593 9.39623 7.0593H8.26415C8.07679 7.0593 7.92453 6.8888 7.92453 6.67901Z" fill="#4A5D52"/>
</svg>
