<svg width="60" height="60" viewBox="0 0 60 60" fill="none" xmlns="http://www.w3.org/2000/svg">
<circle cx="30" cy="30" r="30" fill="#4A5D52"/>
<g clip-path="url(#clip0_37_513)">
<path d="M15.3333 15.3334C14.597 15.3334 14 15.9303 14 16.6667C14 17.4031 14.597 18 15.3333 18H17.7057C17.8999 18 18.0891 18.0611 18.2465 18.1746C18.404 18.2881 18.5218 18.4483 18.5832 18.6325L22.9792 31.8229C23.1744 32.4086 23.1992 33.0392 23.0495 33.6381L22.6875 35.0886C22.1564 37.2131 23.8101 39.3334 26 39.3334H42C42.7364 39.3334 43.3333 38.7364 43.3333 38C43.3333 37.2636 42.7364 36.6667 42 36.6667H26C25.4808 36.6667 25.1475 36.2407 25.2734 35.737L25.5464 34.6467C25.5927 34.462 25.6993 34.298 25.8495 34.1808C25.9996 34.0637 26.1846 34 26.375 34H40.6667C41.2408 34.0003 41.7506 33.6332 41.9323 33.0886L45.487 22.4219C45.775 21.5582 45.1318 20.6663 44.2214 20.6667H22.7396C22.5455 20.6667 22.3562 20.6056 22.1988 20.4921C22.0413 20.3786 21.9235 20.2184 21.8621 20.0342L20.599 16.2448C20.4173 15.7002 19.9074 15.3331 19.3333 15.3334H15.3333ZM24.6667 40.6667C23.1939 40.6667 22 41.8606 22 43.3334C22 44.8061 23.1939 46 24.6667 46C26.1394 46 27.3333 44.8061 27.3333 43.3334C27.3333 41.8606 26.1394 40.6667 24.6667 40.6667ZM40.6667 40.6667C39.1939 40.6667 38 41.8606 38 43.3334C38 44.8061 39.1939 46 40.6667 46C42.1394 46 43.3333 44.8061 43.3333 43.3334C43.3333 41.8606 42.1394 40.6667 40.6667 40.6667Z" fill="white"/>
</g>
<defs>
<clipPath id="clip0_37_513">
<rect width="32" height="32" fill="white" transform="translate(14 14)"/>
</clipPath>
</defs>
</svg>
