<svg width="60" height="60" viewBox="0 0 60 60" fill="none" xmlns="http://www.w3.org/2000/svg">
<circle cx="30" cy="30" r="30" fill="#4A5D52" fill-opacity="0.1"/>
<path d="M19.3405 35.3333V19.3333H16.6738V16.6667H20.6738C21.4102 16.6667 22.0072 17.2636 22.0072 18V34H38.5917L41.2584 23.3333H24.6738V20.6667H42.9661C43.7025 20.6667 44.2995 21.2636 44.2995 22C44.2995 22.109 44.2861 22.2176 44.2596 22.3234L40.9263 35.6567C40.778 36.2503 40.2447 36.6667 39.6328 36.6667H20.6738C19.9375 36.6667 19.3405 36.0697 19.3405 35.3333ZM22.0072 44.6667C20.5344 44.6667 19.3405 43.4728 19.3405 42C19.3405 40.5272 20.5344 39.3333 22.0072 39.3333C23.4799 39.3333 24.6738 40.5272 24.6738 42C24.6738 43.4728 23.4799 44.6667 22.0072 44.6667ZM38.0072 44.6667C36.5344 44.6667 35.3405 43.4728 35.3405 42C35.3405 40.5272 36.5344 39.3333 38.0072 39.3333C39.48 39.3333 40.6739 40.5272 40.6739 42C40.6739 43.4728 39.48 44.6667 38.0072 44.6667Z" fill="#4A5D52"/>
</svg>
