<svg width="14" height="16" viewBox="0 0 14 16" fill="none" xmlns="http://www.w3.org/2000/svg">
<path d="M9.39961 14.4H4.59961V15.2C4.59961 15.4122 4.51532 15.6157 4.36529 15.7657C4.21527 15.9157 4.01178 16 3.79961 16H2.99961C2.78744 16 2.58395 15.9157 2.43392 15.7657C2.2839 15.6157 2.19961 15.4122 2.19961 15.2V14.4C1.77526 14.4 1.3683 14.2314 1.06824 13.9314C0.76818 13.6313 0.599609 13.2243 0.599609 12.8V1.6C0.599609 0.72 1.31961 0 2.19961 0H11.7996C12.224 0 12.6309 0.168571 12.931 0.468629C13.231 0.768687 13.3996 1.17565 13.3996 1.6V12.8C13.3996 13.2243 13.231 13.6313 12.931 13.9314C12.6309 14.2314 12.224 14.4 11.7996 14.4V15.2C11.7996 15.4122 11.7153 15.6157 11.5653 15.7657C11.4153 15.9157 11.2118 16 10.9996 16H10.1996C9.98744 16 9.78395 15.9157 9.63392 15.7657C9.4839 15.6157 9.39961 15.4122 9.39961 15.2V14.4ZM2.19961 4V8.8H6.19961V4H2.19961ZM7.79961 4V8.8H11.7996V4H7.79961ZM2.99961 1.6V2.4H10.9996V1.6H2.99961ZM3.39961 12.8C3.71787 12.8 4.02309 12.6736 4.24814 12.4485C4.47318 12.2235 4.59961 11.9183 4.59961 11.6C4.59961 11.2817 4.47318 10.9765 4.24814 10.7515C4.02309 10.5264 3.71787 10.4 3.39961 10.4C3.08135 10.4 2.77612 10.5264 2.55108 10.7515C2.32604 10.9765 2.19961 11.2817 2.19961 11.6C2.19961 11.9183 2.32604 12.2235 2.55108 12.4485C2.77612 12.6736 3.08135 12.8 3.39961 12.8ZM10.5996 12.8C10.9179 12.8 11.2231 12.6736 11.4481 12.4485C11.6732 12.2235 11.7996 11.9183 11.7996 11.6C11.7996 11.2817 11.6732 10.9765 11.4481 10.7515C11.2231 10.5264 10.9179 10.4 10.5996 10.4C10.2814 10.4 9.97612 10.5264 9.75108 10.7515C9.52604 10.9765 9.39961 11.2817 9.39961 11.6C9.39961 11.9183 9.52604 12.2235 9.75108 12.4485C9.97612 12.6736 10.2814 12.8 10.5996 12.8Z" fill="white"/>
</svg>
