<svg width="21" height="21" viewBox="0 0 21 21" fill="none" xmlns="http://www.w3.org/2000/svg">
<path d="M16.031 14.6173L20.3137 18.9L18.8995 20.3142L14.6168 16.0315C13.0769 17.2635 11.124 18.0005 9 18.0005C4.032 18.0005 0 13.9685 0 9.00046C0 4.03246 4.032 0.000457764 9 0.000457764C13.968 0.000457764 18 4.03246 18 9.00046C18 11.1245 17.263 13.0774 16.031 14.6173ZM14.0247 13.8753C15.2475 12.6151 16 10.8961 16 9.00046C16 5.13296 12.8675 2.00046 9 2.00046C5.1325 2.00046 2 5.13296 2 9.00046C2 12.868 5.1325 16.0005 9 16.0005C10.8956 16.0005 12.6146 15.248 13.8748 14.0252L14.0247 13.8753Z" fill="#4A5D52"/>
</svg>
